<mxfile host="65bd71144e">
    <diagram id="jFUOPklMOgmnA9vsfCdd" name="Page-1">
        <mxGraphModel dx="946" dy="520" grid="0" gridSize="10" guides="1" tooltips="1" connect="1" arrows="1" fold="1" page="1" pageScale="1" pageWidth="850" pageHeight="1100" math="0" shadow="0">
            <root>
                <mxCell id="0"/>
                <mxCell id="1" parent="0"/>
                <mxCell id="2" value="users" style="shape=table;startSize=30;container=1;collapsible=0;childLayout=tableLayout;fontStyle=1;align=center;pointerEvents=1;" vertex="1" parent="1">
                    <mxGeometry x="292" y="82" width="357" height="174" as="geometry"/>
                </mxCell>
                <mxCell id="3" value="" style="shape=partialRectangle;html=1;whiteSpace=wrap;collapsible=0;dropTarget=0;pointerEvents=0;fillColor=none;top=0;left=0;bottom=0;right=0;points=[[0,0.5],[1,0.5]];portConstraint=eastwest;" vertex="1" parent="2">
                    <mxGeometry y="30" width="357" height="46" as="geometry"/>
                </mxCell>
                <mxCell id="4" value="GET" style="shape=partialRectangle;html=1;whiteSpace=wrap;connectable=0;fillColor=none;top=0;left=0;bottom=0;right=0;overflow=hidden;pointerEvents=1;" vertex="1" parent="3">
                    <mxGeometry width="81" height="46" as="geometry">
                        <mxRectangle width="81" height="46" as="alternateBounds"/>
                    </mxGeometry>
                </mxCell>
                <mxCell id="5" value="/user/:id" style="shape=partialRectangle;html=1;whiteSpace=wrap;connectable=0;fillColor=none;top=0;left=0;bottom=0;right=0;overflow=hidden;pointerEvents=1;" vertex="1" parent="3">
                    <mxGeometry x="81" width="115" height="46" as="geometry">
                        <mxRectangle width="115" height="46" as="alternateBounds"/>
                    </mxGeometry>
                </mxCell>
                <mxCell id="6" value="READ" style="shape=partialRectangle;html=1;whiteSpace=wrap;connectable=0;fillColor=none;top=0;left=0;bottom=0;right=0;overflow=hidden;pointerEvents=1;" vertex="1" parent="3">
                    <mxGeometry x="196" width="72" height="46" as="geometry">
                        <mxRectangle width="72" height="46" as="alternateBounds"/>
                    </mxGeometry>
                </mxCell>
                <mxCell id="47" value="Show profile and details" style="shape=partialRectangle;html=1;whiteSpace=wrap;connectable=0;fillColor=none;top=0;left=0;bottom=0;right=0;overflow=hidden;pointerEvents=1;" vertex="1" parent="3">
                    <mxGeometry x="268" width="89" height="46" as="geometry">
                        <mxRectangle width="89" height="46" as="alternateBounds"/>
                    </mxGeometry>
                </mxCell>
                <mxCell id="7" value="" style="shape=partialRectangle;html=1;whiteSpace=wrap;collapsible=0;dropTarget=0;pointerEvents=0;fillColor=none;top=0;left=0;bottom=0;right=0;points=[[0,0.5],[1,0.5]];portConstraint=eastwest;" vertex="1" parent="2">
                    <mxGeometry y="76" width="357" height="50" as="geometry"/>
                </mxCell>
                <mxCell id="8" value="GET" style="shape=partialRectangle;html=1;whiteSpace=wrap;connectable=0;fillColor=none;top=0;left=0;bottom=0;right=0;overflow=hidden;pointerEvents=1;" vertex="1" parent="7">
                    <mxGeometry width="81" height="50" as="geometry">
                        <mxRectangle width="81" height="50" as="alternateBounds"/>
                    </mxGeometry>
                </mxCell>
                <mxCell id="9" value="/users:id/playlists" style="shape=partialRectangle;html=1;connectable=0;fillColor=none;top=0;left=0;bottom=0;right=0;overflow=hidden;pointerEvents=1;whiteSpace=wrap;" vertex="1" parent="7">
                    <mxGeometry x="81" width="115" height="50" as="geometry">
                        <mxRectangle width="115" height="50" as="alternateBounds"/>
                    </mxGeometry>
                </mxCell>
                <mxCell id="10" value="READ" style="shape=partialRectangle;html=1;whiteSpace=wrap;connectable=0;fillColor=none;top=0;left=0;bottom=0;right=0;overflow=hidden;pointerEvents=1;" vertex="1" parent="7">
                    <mxGeometry x="196" width="72" height="50" as="geometry">
                        <mxRectangle width="72" height="50" as="alternateBounds"/>
                    </mxGeometry>
                </mxCell>
                <mxCell id="48" value="Show list of all user's playlists" style="shape=partialRectangle;html=1;whiteSpace=wrap;connectable=0;fillColor=none;top=0;left=0;bottom=0;right=0;overflow=hidden;pointerEvents=1;" vertex="1" parent="7">
                    <mxGeometry x="268" width="89" height="50" as="geometry">
                        <mxRectangle width="89" height="50" as="alternateBounds"/>
                    </mxGeometry>
                </mxCell>
                <mxCell id="11" value="" style="shape=partialRectangle;html=1;whiteSpace=wrap;collapsible=0;dropTarget=0;pointerEvents=0;fillColor=none;top=0;left=0;bottom=0;right=0;points=[[0,0.5],[1,0.5]];portConstraint=eastwest;" vertex="1" parent="2">
                    <mxGeometry y="126" width="357" height="48" as="geometry"/>
                </mxCell>
                <mxCell id="12" value="POST" style="shape=partialRectangle;html=1;whiteSpace=wrap;connectable=0;fillColor=none;top=0;left=0;bottom=0;right=0;overflow=hidden;pointerEvents=1;" vertex="1" parent="11">
                    <mxGeometry width="81" height="48" as="geometry">
                        <mxRectangle width="81" height="48" as="alternateBounds"/>
                    </mxGeometry>
                </mxCell>
                <mxCell id="13" value="/users" style="shape=partialRectangle;html=1;whiteSpace=wrap;connectable=0;fillColor=none;top=0;left=0;bottom=0;right=0;overflow=hidden;pointerEvents=1;" vertex="1" parent="11">
                    <mxGeometry x="81" width="115" height="48" as="geometry">
                        <mxRectangle width="115" height="48" as="alternateBounds"/>
                    </mxGeometry>
                </mxCell>
                <mxCell id="14" value="CREATE" style="shape=partialRectangle;html=1;whiteSpace=wrap;connectable=0;fillColor=none;top=0;left=0;bottom=0;right=0;overflow=hidden;pointerEvents=1;" vertex="1" parent="11">
                    <mxGeometry x="196" width="72" height="48" as="geometry">
                        <mxRectangle width="72" height="48" as="alternateBounds"/>
                    </mxGeometry>
                </mxCell>
                <mxCell id="49" value="create new user" style="shape=partialRectangle;html=1;whiteSpace=wrap;connectable=0;fillColor=none;top=0;left=0;bottom=0;right=0;overflow=hidden;pointerEvents=1;" vertex="1" parent="11">
                    <mxGeometry x="268" width="89" height="48" as="geometry">
                        <mxRectangle width="89" height="48" as="alternateBounds"/>
                    </mxGeometry>
                </mxCell>
                <mxCell id="15" value="songs" style="shape=table;startSize=30;container=1;collapsible=0;childLayout=tableLayout;fontStyle=1;align=center;pointerEvents=1;" vertex="1" parent="1">
                    <mxGeometry x="67" y="307" width="346" height="314" as="geometry"/>
                </mxCell>
                <mxCell id="16" value="" style="shape=partialRectangle;html=1;whiteSpace=wrap;collapsible=0;dropTarget=0;pointerEvents=0;fillColor=none;top=0;left=0;bottom=0;right=0;points=[[0,0.5],[1,0.5]];portConstraint=eastwest;" vertex="1" parent="15">
                    <mxGeometry y="30" width="346" height="72" as="geometry"/>
                </mxCell>
                <mxCell id="17" value="GET" style="shape=partialRectangle;html=1;whiteSpace=wrap;connectable=0;fillColor=none;top=0;left=0;bottom=0;right=0;overflow=hidden;pointerEvents=1;" vertex="1" parent="16">
                    <mxGeometry width="86" height="72" as="geometry">
                        <mxRectangle width="86" height="72" as="alternateBounds"/>
                    </mxGeometry>
                </mxCell>
                <mxCell id="18" value="/songs" style="shape=partialRectangle;html=1;whiteSpace=wrap;connectable=0;fillColor=none;top=0;left=0;bottom=0;right=0;overflow=hidden;pointerEvents=1;" vertex="1" parent="16">
                    <mxGeometry x="86" width="86" height="72" as="geometry">
                        <mxRectangle width="86" height="72" as="alternateBounds"/>
                    </mxGeometry>
                </mxCell>
                <mxCell id="19" value="READ" style="shape=partialRectangle;html=1;whiteSpace=wrap;connectable=0;fillColor=none;top=0;left=0;bottom=0;right=0;overflow=hidden;pointerEvents=1;" vertex="1" parent="16">
                    <mxGeometry x="172" width="84" height="72" as="geometry">
                        <mxRectangle width="84" height="72" as="alternateBounds"/>
                    </mxGeometry>
                </mxCell>
                <mxCell id="44" value="Show page with search form" style="shape=partialRectangle;html=1;whiteSpace=wrap;connectable=0;fillColor=none;top=0;left=0;bottom=0;right=0;overflow=hidden;pointerEvents=1;" vertex="1" parent="16">
                    <mxGeometry x="256" width="90" height="72" as="geometry">
                        <mxRectangle width="90" height="72" as="alternateBounds"/>
                    </mxGeometry>
                </mxCell>
                <mxCell id="20" value="" style="shape=partialRectangle;html=1;whiteSpace=wrap;collapsible=0;dropTarget=0;pointerEvents=0;fillColor=none;top=0;left=0;bottom=0;right=0;points=[[0,0.5],[1,0.5]];portConstraint=eastwest;" vertex="1" parent="15">
                    <mxGeometry y="102" width="346" height="70" as="geometry"/>
                </mxCell>
                <mxCell id="21" value="GET" style="shape=partialRectangle;html=1;whiteSpace=wrap;connectable=0;fillColor=none;top=0;left=0;bottom=0;right=0;overflow=hidden;pointerEvents=1;" vertex="1" parent="20">
                    <mxGeometry width="86" height="70" as="geometry">
                        <mxRectangle width="86" height="70" as="alternateBounds"/>
                    </mxGeometry>
                </mxCell>
                <mxCell id="22" value="/songs/:name" style="shape=partialRectangle;html=1;whiteSpace=wrap;connectable=0;fillColor=none;top=0;left=0;bottom=0;right=0;overflow=hidden;pointerEvents=1;" vertex="1" parent="20">
                    <mxGeometry x="86" width="86" height="70" as="geometry">
                        <mxRectangle width="86" height="70" as="alternateBounds"/>
                    </mxGeometry>
                </mxCell>
                <mxCell id="23" value="READ" style="shape=partialRectangle;html=1;whiteSpace=wrap;connectable=0;fillColor=none;top=0;left=0;bottom=0;right=0;overflow=hidden;pointerEvents=1;" vertex="1" parent="20">
                    <mxGeometry x="172" width="84" height="70" as="geometry">
                        <mxRectangle width="84" height="70" as="alternateBounds"/>
                    </mxGeometry>
                </mxCell>
                <mxCell id="45" value="Show results of searched songs with similar or specific name" style="shape=partialRectangle;html=1;whiteSpace=wrap;connectable=0;fillColor=none;top=0;left=0;bottom=0;right=0;overflow=hidden;pointerEvents=1;" vertex="1" parent="20">
                    <mxGeometry x="256" width="90" height="70" as="geometry">
                        <mxRectangle width="90" height="70" as="alternateBounds"/>
                    </mxGeometry>
                </mxCell>
                <mxCell id="24" value="" style="shape=partialRectangle;html=1;whiteSpace=wrap;collapsible=0;dropTarget=0;pointerEvents=0;fillColor=none;top=0;left=0;bottom=0;right=0;points=[[0,0.5],[1,0.5]];portConstraint=eastwest;" vertex="1" parent="15">
                    <mxGeometry y="172" width="346" height="72" as="geometry"/>
                </mxCell>
                <mxCell id="25" value="POST" style="shape=partialRectangle;html=1;whiteSpace=wrap;connectable=0;fillColor=none;top=0;left=0;bottom=0;right=0;overflow=hidden;pointerEvents=1;" vertex="1" parent="24">
                    <mxGeometry width="86" height="72" as="geometry">
                        <mxRectangle width="86" height="72" as="alternateBounds"/>
                    </mxGeometry>
                </mxCell>
                <mxCell id="26" value="/users/:id/&lt;br&gt;playlists/:id/&lt;br&gt;songs" style="shape=partialRectangle;html=1;whiteSpace=wrap;connectable=0;fillColor=none;top=0;left=0;bottom=0;right=0;overflow=hidden;pointerEvents=1;" vertex="1" parent="24">
                    <mxGeometry x="86" width="86" height="72" as="geometry">
                        <mxRectangle width="86" height="72" as="alternateBounds"/>
                    </mxGeometry>
                </mxCell>
                <mxCell id="27" value="CREATE" style="shape=partialRectangle;html=1;whiteSpace=wrap;connectable=0;fillColor=none;top=0;left=0;bottom=0;right=0;overflow=hidden;pointerEvents=1;" vertex="1" parent="24">
                    <mxGeometry x="172" width="84" height="72" as="geometry">
                        <mxRectangle width="84" height="72" as="alternateBounds"/>
                    </mxGeometry>
                </mxCell>
                <mxCell id="46" value="Find Or Create song in db and add it to desired playlist" style="shape=partialRectangle;html=1;whiteSpace=wrap;connectable=0;fillColor=none;top=0;left=0;bottom=0;right=0;overflow=hidden;pointerEvents=1;" vertex="1" parent="24">
                    <mxGeometry x="256" width="90" height="72" as="geometry">
                        <mxRectangle width="90" height="72" as="alternateBounds"/>
                    </mxGeometry>
                </mxCell>
                <mxCell id="63" style="shape=partialRectangle;html=1;whiteSpace=wrap;collapsible=0;dropTarget=0;pointerEvents=0;fillColor=none;top=0;left=0;bottom=0;right=0;points=[[0,0.5],[1,0.5]];portConstraint=eastwest;" vertex="1" parent="15">
                    <mxGeometry y="244" width="346" height="70" as="geometry"/>
                </mxCell>
                <mxCell id="64" value="DELETE" style="shape=partialRectangle;html=1;whiteSpace=wrap;connectable=0;fillColor=none;top=0;left=0;bottom=0;right=0;overflow=hidden;pointerEvents=1;" vertex="1" parent="63">
                    <mxGeometry width="86" height="70" as="geometry">
                        <mxRectangle width="86" height="70" as="alternateBounds"/>
                    </mxGeometry>
                </mxCell>
                <mxCell id="65" value="&lt;span&gt;/users/:id/&lt;/span&gt;&lt;br&gt;&lt;span&gt;playlists/:id/&lt;/span&gt;&lt;br&gt;&lt;span&gt;songs/:id&lt;/span&gt;" style="shape=partialRectangle;html=1;whiteSpace=wrap;connectable=0;fillColor=none;top=0;left=0;bottom=0;right=0;overflow=hidden;pointerEvents=1;" vertex="1" parent="63">
                    <mxGeometry x="86" width="86" height="70" as="geometry">
                        <mxRectangle width="86" height="70" as="alternateBounds"/>
                    </mxGeometry>
                </mxCell>
                <mxCell id="66" value="DESTROY" style="shape=partialRectangle;html=1;whiteSpace=wrap;connectable=0;fillColor=none;top=0;left=0;bottom=0;right=0;overflow=hidden;pointerEvents=1;" vertex="1" parent="63">
                    <mxGeometry x="172" width="84" height="70" as="geometry">
                        <mxRectangle width="84" height="70" as="alternateBounds"/>
                    </mxGeometry>
                </mxCell>
                <mxCell id="67" value="Remove song from specific playlist" style="shape=partialRectangle;html=1;whiteSpace=wrap;connectable=0;fillColor=none;top=0;left=0;bottom=0;right=0;overflow=hidden;pointerEvents=1;" vertex="1" parent="63">
                    <mxGeometry x="256" width="90" height="70" as="geometry">
                        <mxRectangle width="90" height="70" as="alternateBounds"/>
                    </mxGeometry>
                </mxCell>
                <mxCell id="28" value="playlists" style="shape=table;startSize=28;container=1;collapsible=0;childLayout=tableLayout;fontStyle=1;align=center;pointerEvents=1;" vertex="1" parent="1">
                    <mxGeometry x="456" y="323" width="315" height="211" as="geometry"/>
                </mxCell>
                <mxCell id="29" value="" style="shape=partialRectangle;html=1;whiteSpace=wrap;collapsible=0;dropTarget=0;pointerEvents=0;fillColor=none;top=0;left=0;bottom=0;right=0;points=[[0,0.5],[1,0.5]];portConstraint=eastwest;" vertex="1" parent="28">
                    <mxGeometry y="28" width="315" height="46" as="geometry"/>
                </mxCell>
                <mxCell id="30" value="GET" style="shape=partialRectangle;html=1;whiteSpace=wrap;connectable=0;fillColor=none;top=0;left=0;bottom=0;right=0;overflow=hidden;pointerEvents=1;" vertex="1" parent="29">
                    <mxGeometry width="79" height="46" as="geometry">
                        <mxRectangle width="79" height="46" as="alternateBounds"/>
                    </mxGeometry>
                </mxCell>
                <mxCell id="31" value="/users/:id/&lt;br&gt;playlists/:id" style="shape=partialRectangle;html=1;whiteSpace=wrap;connectable=0;fillColor=none;top=0;left=0;bottom=0;right=0;overflow=hidden;pointerEvents=1;" vertex="1" parent="29">
                    <mxGeometry x="79" width="79" height="46" as="geometry">
                        <mxRectangle width="79" height="46" as="alternateBounds"/>
                    </mxGeometry>
                </mxCell>
                <mxCell id="32" value="READ" style="shape=partialRectangle;html=1;whiteSpace=wrap;connectable=0;fillColor=none;top=0;left=0;bottom=0;right=0;overflow=hidden;pointerEvents=1;" vertex="1" parent="29">
                    <mxGeometry x="158" width="78" height="46" as="geometry">
                        <mxRectangle width="78" height="46" as="alternateBounds"/>
                    </mxGeometry>
                </mxCell>
                <mxCell id="50" value="Show specific playlists with array of songs" style="shape=partialRectangle;html=1;whiteSpace=wrap;connectable=0;fillColor=none;top=0;left=0;bottom=0;right=0;overflow=hidden;pointerEvents=1;" vertex="1" parent="29">
                    <mxGeometry x="236" width="79" height="46" as="geometry">
                        <mxRectangle width="79" height="46" as="alternateBounds"/>
                    </mxGeometry>
                </mxCell>
                <mxCell id="37" value="" style="shape=partialRectangle;html=1;whiteSpace=wrap;collapsible=0;dropTarget=0;pointerEvents=0;fillColor=none;top=0;left=0;bottom=0;right=0;points=[[0,0.5],[1,0.5]];portConstraint=eastwest;" vertex="1" parent="28">
                    <mxGeometry y="74" width="315" height="45" as="geometry"/>
                </mxCell>
                <mxCell id="38" value="POST" style="shape=partialRectangle;html=1;whiteSpace=wrap;connectable=0;fillColor=none;top=0;left=0;bottom=0;right=0;overflow=hidden;pointerEvents=1;" vertex="1" parent="37">
                    <mxGeometry width="79" height="45" as="geometry">
                        <mxRectangle width="79" height="45" as="alternateBounds"/>
                    </mxGeometry>
                </mxCell>
                <mxCell id="39" value="/users/:id/&lt;br&gt;playlists" style="shape=partialRectangle;html=1;whiteSpace=wrap;connectable=0;fillColor=none;top=0;left=0;bottom=0;right=0;overflow=hidden;pointerEvents=1;" vertex="1" parent="37">
                    <mxGeometry x="79" width="79" height="45" as="geometry">
                        <mxRectangle width="79" height="45" as="alternateBounds"/>
                    </mxGeometry>
                </mxCell>
                <mxCell id="40" value="CREATE" style="shape=partialRectangle;html=1;whiteSpace=wrap;connectable=0;fillColor=none;top=0;left=0;bottom=0;right=0;overflow=hidden;pointerEvents=1;" vertex="1" parent="37">
                    <mxGeometry x="158" width="78" height="45" as="geometry">
                        <mxRectangle width="78" height="45" as="alternateBounds"/>
                    </mxGeometry>
                </mxCell>
                <mxCell id="52" value="Find or Create new playlist&amp;nbsp;" style="shape=partialRectangle;html=1;whiteSpace=wrap;connectable=0;fillColor=none;top=0;left=0;bottom=0;right=0;overflow=hidden;pointerEvents=1;" vertex="1" parent="37">
                    <mxGeometry x="236" width="79" height="45" as="geometry">
                        <mxRectangle width="79" height="45" as="alternateBounds"/>
                    </mxGeometry>
                </mxCell>
                <mxCell id="58" style="shape=partialRectangle;html=1;whiteSpace=wrap;collapsible=0;dropTarget=0;pointerEvents=0;fillColor=none;top=0;left=0;bottom=0;right=0;points=[[0,0.5],[1,0.5]];portConstraint=eastwest;" vertex="1" parent="28">
                    <mxGeometry y="119" width="315" height="46" as="geometry"/>
                </mxCell>
                <mxCell id="59" value="PUT" style="shape=partialRectangle;html=1;whiteSpace=wrap;connectable=0;fillColor=none;top=0;left=0;bottom=0;right=0;overflow=hidden;pointerEvents=1;" vertex="1" parent="58">
                    <mxGeometry width="79" height="46" as="geometry">
                        <mxRectangle width="79" height="46" as="alternateBounds"/>
                    </mxGeometry>
                </mxCell>
                <mxCell id="60" value="&lt;span&gt;/users/:id/&lt;/span&gt;&lt;br&gt;&lt;span&gt;playlists/:id&lt;/span&gt;" style="shape=partialRectangle;html=1;whiteSpace=wrap;connectable=0;fillColor=none;top=0;left=0;bottom=0;right=0;overflow=hidden;pointerEvents=1;" vertex="1" parent="58">
                    <mxGeometry x="79" width="79" height="46" as="geometry">
                        <mxRectangle width="79" height="46" as="alternateBounds"/>
                    </mxGeometry>
                </mxCell>
                <mxCell id="61" value="UPDATE" style="shape=partialRectangle;html=1;whiteSpace=wrap;connectable=0;fillColor=none;top=0;left=0;bottom=0;right=0;overflow=hidden;pointerEvents=1;" vertex="1" parent="58">
                    <mxGeometry x="158" width="78" height="46" as="geometry">
                        <mxRectangle width="78" height="46" as="alternateBounds"/>
                    </mxGeometry>
                </mxCell>
                <mxCell id="62" value="Edit a playlist" style="shape=partialRectangle;html=1;whiteSpace=wrap;connectable=0;fillColor=none;top=0;left=0;bottom=0;right=0;overflow=hidden;pointerEvents=1;" vertex="1" parent="58">
                    <mxGeometry x="236" width="79" height="46" as="geometry">
                        <mxRectangle width="79" height="46" as="alternateBounds"/>
                    </mxGeometry>
                </mxCell>
                <mxCell id="53" style="shape=partialRectangle;html=1;whiteSpace=wrap;collapsible=0;dropTarget=0;pointerEvents=0;fillColor=none;top=0;left=0;bottom=0;right=0;points=[[0,0.5],[1,0.5]];portConstraint=eastwest;" vertex="1" parent="28">
                    <mxGeometry y="165" width="315" height="46" as="geometry"/>
                </mxCell>
                <mxCell id="54" value="DELETE" style="shape=partialRectangle;html=1;whiteSpace=wrap;connectable=0;fillColor=none;top=0;left=0;bottom=0;right=0;overflow=hidden;pointerEvents=1;" vertex="1" parent="53">
                    <mxGeometry width="79" height="46" as="geometry">
                        <mxRectangle width="79" height="46" as="alternateBounds"/>
                    </mxGeometry>
                </mxCell>
                <mxCell id="55" value="/users/:id/&lt;br&gt;playlists/:id" style="shape=partialRectangle;html=1;whiteSpace=wrap;connectable=0;fillColor=none;top=0;left=0;bottom=0;right=0;overflow=hidden;pointerEvents=1;" vertex="1" parent="53">
                    <mxGeometry x="79" width="79" height="46" as="geometry">
                        <mxRectangle width="79" height="46" as="alternateBounds"/>
                    </mxGeometry>
                </mxCell>
                <mxCell id="56" value="DESTROY" style="shape=partialRectangle;html=1;whiteSpace=wrap;connectable=0;fillColor=none;top=0;left=0;bottom=0;right=0;overflow=hidden;pointerEvents=1;" vertex="1" parent="53">
                    <mxGeometry x="158" width="78" height="46" as="geometry">
                        <mxRectangle width="78" height="46" as="alternateBounds"/>
                    </mxGeometry>
                </mxCell>
                <mxCell id="57" value="Delete a playlsit" style="shape=partialRectangle;html=1;whiteSpace=wrap;connectable=0;fillColor=none;top=0;left=0;bottom=0;right=0;overflow=hidden;pointerEvents=1;" vertex="1" parent="53">
                    <mxGeometry x="236" width="79" height="46" as="geometry">
                        <mxRectangle width="79" height="46" as="alternateBounds"/>
                    </mxGeometry>
                </mxCell>
            </root>
        </mxGraphModel>
    </diagram>
</mxfile>